<svg id="ef13gwoqrf181" xmlns="http://www.w3.org/2000/svg" xmlns:xlink="http://www.w3.org/1999/xlink" viewBox="0 0 1054 1041" shape-rendering="geometricPrecision" text-rendering="geometricPrecision"><style><![CDATA[#ef13gwoqrf185_to {animation: ef13gwoqrf185_to__to 1000ms linear 1 normal forwards}@keyframes ef13gwoqrf185_to__to { 0% {transform: translate(-272.594948px,347.958553px);animation-timing-function: cubic-bezier(0.550000,-0.370000,0.690000,1.465000)} 70% {transform: translate(527.000046px,520.499990px)} 100% {transform: translate(527.000046px,520.499990px)} }#ef13gwoqrf185_tr {animation: ef13gwoqrf185_tr__tr 1000ms linear 1 normal forwards}@keyframes ef13gwoqrf185_tr__tr { 0% {transform: rotate(45deg)} 70% {transform: rotate(0deg)} 100% {transform: rotate(0deg)} }#ef13gwoqrf185_ts {animation: ef13gwoqrf185_ts__ts 1000ms linear 1 normal forwards}@keyframes ef13gwoqrf185_ts__ts { 0% {transform: scale(0.500000,0.500000);animation-timing-function: cubic-bezier(0.215000,0.610000,0.355000,1)} 70% {transform: scale(1,1)} 100% {transform: scale(1,1)} }#ef13gwoqrf185 {animation: ef13gwoqrf185_c_o 1000ms linear 1 normal forwards}@keyframes ef13gwoqrf185_c_o { 0% {opacity: 0;animation-timing-function: cubic-bezier(0.215000,0.610000,0.355000,1)} 70% {opacity: 1} 100% {opacity: 1} }]]></style><defs><linearGradient id="ef13gwoqrf184-fill" x1="0" y1="520.500000" x2="1054" y2="520.500000" spreadMethod="pad" gradientUnits="userSpaceOnUse"><stop id="ef13gwoqrf184-fill-0" offset="0%" stop-color="rgb(255,102,51)"/><stop id="ef13gwoqrf184-fill-1" offset="33%" stop-color="rgb(253,93,50)"/><stop id="ef13gwoqrf184-fill-2" offset="88%" stop-color="rgb(247,67,46)"/><stop id="ef13gwoqrf184-fill-3" offset="99%" stop-color="rgb(245,61,45)"/></linearGradient></defs><g id="ef13gwoqrf182"><g id="ef13gwoqrf183"><rect id="ef13gwoqrf184" width="1054" height="1041" rx="163.380000" ry="163.380000" fill="url(#ef13gwoqrf184-fill)" stroke="none" stroke-width="1"/><g id="ef13gwoqrf185_to" transform="translate(-272.594948,347.958553)"><g id="ef13gwoqrf185_tr" transform="rotate(45)"><g id="ef13gwoqrf185_ts" transform="scale(0.500000,0.500000)"><path id="ef13gwoqrf185" d="M889.180000,318C889.198604,313.868841,887.574645,309.899641,884.665661,306.966275C881.756678,304.032909,877.801170,302.375878,873.670000,302.360000L705.540000,302.360000C701.420000,192.580000,623.070000,105.060000,527,105.060000C430.930000,105.060000,352.610000,192.580000,348.490000,302.330000L180.150000,302.330000C171.640133,302.515420,164.849786,309.488209,164.890000,318C164.890000,318.410000,164.890000,318.820000,164.950000,319.220000L164.820000,319.220000L188.820000,848.220000C188.820000,849.700000,188.880000,851.220000,189.010000,852.680000C189.010000,853.020000,189.010000,853.340000,189.070000,853.680000L189.130000,854.810000L189.190000,854.810000C192.830000,891.640000,219.560000,921.290000,255.860000,922.670000L255.950000,922.730000L792.650000,922.730000L792.650000,922.730000C829.650000,921.730000,859.570000,891.670000,862.710000,854.400000L862.710000,854.400000L862.710000,853.900000C862.710000,853.520000,862.770000,853.150000,862.770000,852.740000C862.830000,851.800000,862.900000,850.860000,862.900000,849.940000L889.090000,318.800000L889.090000,318.800000C889.135128,318.535253,889.165176,318.268156,889.180000,318ZM527,152.790000C597,152.790000,654,219.210000,656.690000,302.330000L397.320000,302.330000C400,219.210000,457,152.790000,527,152.790000ZM659.750000,717.060000C655.010000,756.310000,631.210000,787.780000,594.340000,803.510000C573.800000,812.300000,546.260000,817.040000,524.440000,815.510000C491.194584,814.423050,458.601813,805.991412,429,790.820000C418.450000,785.420000,402.780000,774.620000,390.720000,764.510000C387.720000,761.970000,387.300000,760.330000,389.310000,757.440000C390.410000,755.810000,392.420000,752.860000,396.880000,746.320000C403.320000,736.870000,404.100000,735.710000,404.880000,734.580000C406.880000,731.440000,410.280000,731.160000,413.580000,733.760000L414.210000,734.230000L416.030000,735.640000C417.320000,736.640000,418.030000,737.240000,418.390000,737.460000C450.170000,762.360000,487.190000,776.710000,524.560000,778.160000C576.560000,777.440000,613.960000,754.070000,620.650000,718.160000C628.030000,678.660000,597,644.520000,536.340000,625.490000C517.340000,619.560000,469.390000,600.340000,460.540000,595.160000Q398.270000,558.610000,402.350000,499.450000C406.590000,444.810000,457.350000,404.050000,521.430000,403.770000C550.567734,403.850936,579.390750,409.799190,606.180000,421.260000C615.910000,425.370000,633.280000,434.830000,639.280000,439.260000C642.730000,441.800000,643.420000,444.760000,641.450000,447.960000C640.320000,449.810000,638.450000,452.730000,634.670000,458.860000L634.610000,458.920000C629.550000,466.920000,629.400000,467.210000,628.240000,469.090000C626.240000,472.170000,623.840000,472.450000,620.240000,470.160000C590.820000,450.410000,558.240000,440.450000,522.360000,439.730000C477.740000,440.610000,444.290000,467.180000,442.100000,503.380000C441.500000,536.070000,466.030000,559.900000,518.970000,578.120000C626.370000,612.710000,667.510000,653.190000,659.750000,717.060000Z" transform="translate(-527.000046,-513.894989)" opacity="0" fill="rgb(255,255,255)" fill-rule="evenodd" stroke="none" stroke-width="1"/></g></g></g></g></g></svg>