<svg width="125" height="383" viewBox="0 0 125 383" fill="none" xmlns="http://www.w3.org/2000/svg">
<g clip-path="url(#clip0)">
<path d="M32.2935 172.128H92.6969C159.461 220.516 93.4064 263.697 93.4064 263.697H31.5938C31.5938 263.697 -34.4609 220.516 32.2935 172.128Z" fill="#FF6C58"/>
<path d="M31.726 274.451H93.2743C95.9658 274.451 98.1477 272.045 98.1477 269.077V269.071C98.1477 266.103 95.9658 263.697 93.2743 263.697H31.726C29.0345 263.697 26.8527 266.103 26.8527 269.071V269.077C26.8527 272.045 29.0345 274.451 31.726 274.451Z" fill="#FF6C58"/>
<path d="M32.3033 172.128H92.6969C96.4747 172.128 99.5372 168.751 99.5372 164.585C99.5372 160.419 96.4747 157.042 92.6969 157.042H32.3033C28.5255 157.042 25.463 160.419 25.463 164.585C25.463 168.751 28.5255 172.128 32.3033 172.128Z" fill="#FF6C58"/>
<path d="M62.5665 318.495C65.5228 318.495 67.9194 315.852 67.9194 312.592C67.9194 309.332 65.5228 306.69 62.5665 306.69C59.6102 306.69 57.2136 309.332 57.2136 312.592C57.2136 315.852 59.6102 318.495 62.5665 318.495Z" fill="#FF6C58"/>
<path d="M62.5665 344.588C65.5228 344.588 67.9194 341.946 67.9194 338.686C67.9194 335.426 65.5228 332.783 62.5665 332.783C59.6102 332.783 57.2136 335.426 57.2136 338.686C57.2136 341.946 59.6102 344.588 62.5665 344.588Z" fill="#FF6C58"/>
<path d="M50.7347 331.542C53.691 331.542 56.0876 328.899 56.0876 325.639C56.0876 322.379 53.691 319.736 50.7347 319.736C47.7784 319.736 45.3818 322.379 45.3818 325.639C45.3818 328.899 47.7784 331.542 50.7347 331.542Z" fill="#FF6C58"/>
<path d="M74.3976 331.542C77.3539 331.542 79.7504 328.899 79.7504 325.639C79.7504 322.379 77.3539 319.736 74.3976 319.736C71.4412 319.736 69.0447 322.379 69.0447 325.639C69.0447 328.899 71.4412 331.542 74.3976 331.542Z" fill="#FF6C58"/>
<path d="M62.2533 380.653V380.362C62.0539 380.624 61.8046 380.835 61.523 380.98C61.2414 381.124 60.9345 381.199 60.6239 381.198C60.0568 381.198 59.513 380.949 59.112 380.507C58.711 380.065 58.4857 379.465 58.4857 378.84V370.094C58.4857 368.92 58.9084 367.795 59.6609 366.965C60.4133 366.135 61.4338 365.669 62.4979 365.669C63.562 365.669 64.5826 366.135 65.335 366.965C66.0874 367.795 66.5101 368.92 66.5101 370.094V380.648C66.5101 381.27 66.2859 381.867 65.8867 382.307C65.4876 382.747 64.9462 382.995 64.3817 382.995C63.8172 382.995 63.2758 382.747 62.8767 382.307C62.4775 381.867 62.2533 381.27 62.2533 380.648V380.653ZM58.975 370.099V378.845C58.9793 379.308 59.1435 379.75 59.434 380.084C59.7246 380.417 60.1195 380.615 60.5381 380.638C60.9567 380.66 61.3674 380.506 61.6862 380.206C62.005 379.906 62.2078 379.483 62.2533 379.023H62.7426V380.642C62.7426 381.122 62.9153 381.581 63.2227 381.92C63.5301 382.259 63.947 382.45 64.3817 382.45C64.8164 382.45 65.2334 382.259 65.5408 381.92C65.8482 381.581 66.0208 381.122 66.0208 380.642V370.094C66.0208 369.063 65.6497 368.075 64.989 367.347C64.3283 366.618 63.4323 366.209 62.4979 366.209C61.5636 366.209 60.6675 366.618 60.0069 367.347C59.3462 368.075 58.975 369.063 58.975 370.094V370.099Z" fill="url(#paint0_linear)"/>
<mask id="path-9-inside-1" fill="white">
<path d="M-0.00471108 218.514C0.460118 240.55 18.5885 257.055 26.5982 263.298C25.5674 264.423 24.862 265.86 24.5712 267.427C24.2803 268.994 24.4171 270.621 24.9642 272.102C25.5113 273.584 26.4441 274.853 27.645 275.75C28.8459 276.648 30.2609 277.132 31.7113 277.143H60.0366V304.472C58.4906 305.051 57.1489 306.152 56.2009 307.618C55.2529 309.084 54.7467 310.841 54.7537 312.642C54.7607 314.442 55.2807 316.195 56.2401 317.652C57.1995 319.109 58.5498 320.197 60.1002 320.761V322.952H58.1137C57.5322 321.011 56.3428 319.362 54.7586 318.3C53.1745 317.238 51.2992 316.834 49.469 317.158C47.6387 317.483 45.9733 318.516 44.7711 320.072C43.5689 321.628 42.9086 323.606 42.9086 325.65C42.9086 327.694 43.5689 329.671 44.7711 331.227C45.9733 332.784 47.6387 333.817 49.469 334.141C51.2992 334.466 53.1745 334.061 54.7586 333C56.3428 331.938 57.5322 330.289 58.1137 328.348H60.1002V330.538C58.5432 331.104 57.1877 332.197 56.2269 333.662C55.2661 335.127 54.7489 336.889 54.7489 338.696C54.7489 340.504 55.2661 342.266 56.2269 343.731C57.1877 345.196 58.5432 346.289 60.1002 346.855L60.0464 365.443C60.0482 365.876 60.1456 366.301 60.3302 366.684C59.8345 367.066 59.4299 367.575 59.1505 368.167C58.8711 368.758 58.7253 369.416 58.7253 370.083V378.829C58.7268 379.363 58.9139 379.875 59.248 380.261C59.5821 380.647 60.0377 380.876 60.5209 380.903C61.004 380.929 61.4779 380.75 61.8448 380.402C62.2117 380.055 62.4437 379.565 62.4928 379.034V380.653C62.4928 381.204 62.6913 381.732 63.0446 382.122C63.3979 382.511 63.877 382.73 64.3766 382.73C64.8762 382.73 65.3554 382.511 65.7087 382.122C66.0619 381.732 66.2604 381.204 66.2604 380.653V370.094C66.2604 369.427 66.1146 368.769 65.8352 368.177C65.5558 367.586 65.1511 367.077 64.6555 366.694C64.8378 366.317 64.9351 365.897 64.9393 365.47L64.998 346.844C66.5568 346.279 67.9142 345.186 68.8764 343.721C69.8387 342.255 70.3568 340.492 70.3568 338.683C70.3568 336.874 69.8387 335.111 68.8764 333.645C67.9142 332.18 66.5568 331.087 64.998 330.522V328.331H66.9846C67.566 330.272 68.7555 331.922 70.3396 332.983C71.9238 334.045 73.799 334.45 75.6293 334.125C77.4595 333.8 79.125 332.767 80.3272 331.211C81.5294 329.655 82.1896 327.678 82.1896 325.634C82.1896 323.589 81.5294 321.612 80.3272 320.056C79.125 318.5 77.4595 317.467 75.6293 317.142C73.799 316.817 71.9238 317.222 70.3396 318.284C68.7555 319.346 67.566 320.995 66.9846 322.936H64.998V320.745C66.5594 320.176 67.9174 319.076 68.8777 317.604C69.8379 316.131 70.3513 314.362 70.3442 312.548C70.3371 310.734 69.8101 308.97 68.8384 307.507C67.8667 306.043 66.5002 304.957 64.9344 304.402V277.154H93.2597C94.7101 277.143 96.1251 276.658 97.326 275.761C98.5269 274.864 99.4597 273.595 100.007 272.113C100.554 270.632 100.691 269.005 100.4 267.438C100.109 265.871 99.4036 264.434 98.3728 263.309C106.407 257.055 124.516 240.55 124.976 218.525C125.313 202.538 116.256 187.23 98.0645 172.932C99.6594 171.668 100.85 169.88 101.467 167.824C102.083 165.768 102.093 163.549 101.496 161.486C100.898 159.423 99.7232 157.622 98.14 156.341C96.5567 155.06 94.6461 154.365 92.6823 154.355H71.0359V150.319C71.0334 148.292 70.4391 146.321 69.3411 144.696C68.243 143.071 66.6995 141.879 64.9393 141.297V-2H60.0464V141.303C58.2861 141.885 56.7427 143.076 55.6446 144.701C54.5465 146.326 53.9522 148.298 53.9498 150.324V154.349H32.2887C30.3249 154.359 28.4143 155.055 26.8311 156.336C25.2478 157.617 24.0731 159.418 23.4754 161.481C22.8777 163.544 22.8878 165.762 23.5042 167.819C24.1206 169.875 25.3116 171.663 26.9065 172.926C8.71941 187.203 -0.332538 202.527 -0.00471108 218.514ZM71.4812 325.639C71.4812 325.005 71.6516 324.386 71.971 323.858C72.2904 323.331 72.7443 322.921 73.2754 322.678C73.8064 322.435 74.3908 322.372 74.9546 322.496C75.5184 322.619 76.0363 322.925 76.4427 323.373C76.8492 323.821 77.126 324.392 77.2381 325.014C77.3503 325.635 77.2927 326.28 77.0728 326.866C76.8528 327.451 76.4803 327.952 76.0023 328.304C75.5243 328.656 74.9624 328.844 74.3876 328.844C73.6176 328.843 72.8796 328.504 72.3356 327.903C71.7916 327.303 71.4861 326.488 71.4861 325.639H71.4812ZM59.65 338.686C59.65 338.052 59.8205 337.432 60.1399 336.905C60.4592 336.378 60.9131 335.967 61.4442 335.725C61.9753 335.482 62.5597 335.419 63.1235 335.542C63.6872 335.666 64.2051 335.971 64.6116 336.419C65.0181 336.868 65.2949 337.439 65.407 338.06C65.5192 338.682 65.4616 339.327 65.2416 339.912C65.0216 340.498 64.6491 340.998 64.1712 341.351C63.6932 341.703 63.1313 341.891 62.5564 341.891C61.7865 341.889 61.0485 341.551 60.5045 340.95C59.9605 340.349 59.6549 339.535 59.6549 338.686H59.65ZM53.6268 325.639C53.6268 326.273 53.4564 326.893 53.137 327.42C52.8177 327.947 52.3637 328.357 51.8327 328.6C51.3016 328.843 50.7172 328.906 50.1534 328.782C49.5896 328.659 49.0718 328.354 48.6653 327.905C48.2588 327.457 47.982 326.886 47.8699 326.264C47.7577 325.643 47.8153 324.998 48.0352 324.413C48.2552 323.827 48.6278 323.326 49.1057 322.974C49.5837 322.622 50.1456 322.434 50.7204 322.434C51.1025 322.433 51.481 322.516 51.8342 322.676C52.1873 322.837 52.5083 323.073 52.7787 323.371C53.0491 323.669 53.2637 324.022 53.41 324.411C53.5564 324.8 53.6317 325.218 53.6317 325.639H53.6268ZM59.6549 312.565C59.6549 311.932 59.8254 311.312 60.1448 310.785C60.4641 310.258 60.918 309.847 61.4491 309.604C61.9802 309.362 62.5646 309.298 63.1284 309.422C63.6921 309.546 64.21 309.851 64.6165 310.299C65.023 310.747 65.2998 311.318 65.4119 311.94C65.524 312.562 65.4665 313.206 65.2465 313.792C65.0265 314.378 64.654 314.878 64.1761 315.23C63.6981 315.582 63.1362 315.77 62.5613 315.77C62.1797 315.77 61.8017 315.688 61.4491 315.526C61.0965 315.365 60.7761 315.129 60.5062 314.832C60.2363 314.534 60.0222 314.181 59.8762 313.792C59.7301 313.403 59.6549 312.986 59.6549 312.565ZM4.88823 218.374C4.57998 203.396 14.0478 188.746 33.0275 174.831H45.8128C39.6868 183.07 28.2422 201.496 28.986 223.144C29.4753 236.967 34.8575 249.674 45.0299 261.005H32.2887C28.4086 258.28 5.37753 241.143 4.88823 218.374ZM31.7162 266.395H93.2695C93.8641 266.473 94.4121 266.789 94.8097 267.282C95.2073 267.776 95.427 268.414 95.427 269.074C95.427 269.734 95.2073 270.372 94.8097 270.865C94.4121 271.359 93.8641 271.675 93.2695 271.753H31.7211C31.1265 271.675 30.5785 271.359 30.1809 270.865C29.7832 270.372 29.5636 269.734 29.5636 269.074C29.5636 268.414 29.7832 267.776 30.1809 267.282C30.5785 266.789 31.1265 266.473 31.7211 266.395H31.7162ZM120.088 218.374C119.598 241.181 96.5771 258.269 92.6872 260.999H79.9655C90.1429 249.669 95.5349 236.962 96.0095 223.138C96.7532 201.491 85.3086 183.076 79.1827 174.82H91.963C110.943 188.752 120.411 203.401 120.093 218.39L120.088 218.374ZM92.6872 169.414H32.2887C31.1208 169.414 30.0007 168.902 29.1749 167.992C28.349 167.081 27.8851 165.846 27.8851 164.558C27.8851 163.27 28.349 162.035 29.1749 161.124C30.0007 160.213 31.1208 159.702 32.2887 159.702H92.6921C93.86 159.702 94.9801 160.213 95.8059 161.124C96.6318 162.035 97.0957 163.27 97.0957 164.558C97.0957 165.846 96.6318 167.081 95.8059 167.992C94.9801 168.902 93.86 169.414 92.6921 169.414H92.6872ZM33.8789 222.998C33.052 199.327 48.8171 179.04 52.3057 174.853H60.0513V261.005H52.1736C40.5186 249.706 34.3633 236.919 33.8789 222.998ZM72.8218 261.026H64.9442V174.826H72.6897C76.1784 179.013 91.9435 199.3 91.1166 222.971C90.6273 236.919 84.4719 249.706 72.8218 261.005V261.026ZM66.143 154.344H58.8476V150.319C58.8822 149.277 59.2816 148.291 59.9619 147.568C60.6422 146.845 61.5503 146.441 62.4953 146.441C63.4402 146.441 64.3484 146.845 65.0286 147.568C65.7089 148.291 66.1084 149.277 66.143 150.319V154.344Z"/>
</mask>
<path d="M-0.00471108 218.514C0.460118 240.55 18.5885 257.055 26.5982 263.298C25.5674 264.423 24.862 265.86 24.5712 267.427C24.2803 268.994 24.4171 270.621 24.9642 272.102C25.5113 273.584 26.4441 274.853 27.645 275.75C28.8459 276.648 30.2609 277.132 31.7113 277.143H60.0366V304.472C58.4906 305.051 57.1489 306.152 56.2009 307.618C55.2529 309.084 54.7467 310.841 54.7537 312.642C54.7607 314.442 55.2807 316.195 56.2401 317.652C57.1995 319.109 58.5498 320.197 60.1002 320.761V322.952H58.1137C57.5322 321.011 56.3428 319.362 54.7586 318.3C53.1745 317.238 51.2992 316.834 49.469 317.158C47.6387 317.483 45.9733 318.516 44.7711 320.072C43.5689 321.628 42.9086 323.606 42.9086 325.65C42.9086 327.694 43.5689 329.671 44.7711 331.227C45.9733 332.784 47.6387 333.817 49.469 334.141C51.2992 334.466 53.1745 334.061 54.7586 333C56.3428 331.938 57.5322 330.289 58.1137 328.348H60.1002V330.538C58.5432 331.104 57.1877 332.197 56.2269 333.662C55.2661 335.127 54.7489 336.889 54.7489 338.696C54.7489 340.504 55.2661 342.266 56.2269 343.731C57.1877 345.196 58.5432 346.289 60.1002 346.855L60.0464 365.443C60.0482 365.876 60.1456 366.301 60.3302 366.684C59.8345 367.066 59.4299 367.575 59.1505 368.167C58.8711 368.758 58.7253 369.416 58.7253 370.083V378.829C58.7268 379.363 58.9139 379.875 59.248 380.261C59.5821 380.647 60.0377 380.876 60.5209 380.903C61.004 380.929 61.4779 380.75 61.8448 380.402C62.2117 380.055 62.4437 379.565 62.4928 379.034V380.653C62.4928 381.204 62.6913 381.732 63.0446 382.122C63.3979 382.511 63.877 382.73 64.3766 382.73C64.8762 382.73 65.3554 382.511 65.7087 382.122C66.0619 381.732 66.2604 381.204 66.2604 380.653V370.094C66.2604 369.427 66.1146 368.769 65.8352 368.177C65.5558 367.586 65.1511 367.077 64.6555 366.694C64.8378 366.317 64.9351 365.897 64.9393 365.47L64.998 346.844C66.5568 346.279 67.9142 345.186 68.8764 343.721C69.8387 342.255 70.3568 340.492 70.3568 338.683C70.3568 336.874 69.8387 335.111 68.8764 333.645C67.9142 332.18 66.5568 331.087 64.998 330.522V328.331H66.9846C67.566 330.272 68.7555 331.922 70.3396 332.983C71.9238 334.045 73.799 334.45 75.6293 334.125C77.4595 333.8 79.125 332.767 80.3272 331.211C81.5294 329.655 82.1896 327.678 82.1896 325.634C82.1896 323.589 81.5294 321.612 80.3272 320.056C79.125 318.5 77.4595 317.467 75.6293 317.142C73.799 316.817 71.9238 317.222 70.3396 318.284C68.7555 319.346 67.566 320.995 66.9846 322.936H64.998V320.745C66.5594 320.176 67.9174 319.076 68.8777 317.604C69.8379 316.131 70.3513 314.362 70.3442 312.548C70.3371 310.734 69.8101 308.97 68.8384 307.507C67.8667 306.043 66.5002 304.957 64.9344 304.402V277.154H93.2597C94.7101 277.143 96.1251 276.658 97.326 275.761C98.5269 274.864 99.4597 273.595 100.007 272.113C100.554 270.632 100.691 269.005 100.4 267.438C100.109 265.871 99.4036 264.434 98.3728 263.309C106.407 257.055 124.516 240.55 124.976 218.525C125.313 202.538 116.256 187.23 98.0645 172.932C99.6594 171.668 100.85 169.88 101.467 167.824C102.083 165.768 102.093 163.549 101.496 161.486C100.898 159.423 99.7232 157.622 98.14 156.341C96.5567 155.06 94.6461 154.365 92.6823 154.355H71.0359V150.319C71.0334 148.292 70.4391 146.321 69.3411 144.696C68.243 143.071 66.6995 141.879 64.9393 141.297V-2H60.0464V141.303C58.2861 141.885 56.7427 143.076 55.6446 144.701C54.5465 146.326 53.9522 148.298 53.9498 150.324V154.349H32.2887C30.3249 154.359 28.4143 155.055 26.8311 156.336C25.2478 157.617 24.0731 159.418 23.4754 161.481C22.8777 163.544 22.8878 165.762 23.5042 167.819C24.1206 169.875 25.3116 171.663 26.9065 172.926C8.71941 187.203 -0.332538 202.527 -0.00471108 218.514ZM71.4812 325.639C71.4812 325.005 71.6516 324.386 71.971 323.858C72.2904 323.331 72.7443 322.921 73.2754 322.678C73.8064 322.435 74.3908 322.372 74.9546 322.496C75.5184 322.619 76.0363 322.925 76.4427 323.373C76.8492 323.821 77.126 324.392 77.2381 325.014C77.3503 325.635 77.2927 326.28 77.0728 326.866C76.8528 327.451 76.4803 327.952 76.0023 328.304C75.5243 328.656 74.9624 328.844 74.3876 328.844C73.6176 328.843 72.8796 328.504 72.3356 327.903C71.7916 327.303 71.4861 326.488 71.4861 325.639H71.4812ZM59.65 338.686C59.65 338.052 59.8205 337.432 60.1399 336.905C60.4592 336.378 60.9131 335.967 61.4442 335.725C61.9753 335.482 62.5597 335.419 63.1235 335.542C63.6872 335.666 64.2051 335.971 64.6116 336.419C65.0181 336.868 65.2949 337.439 65.407 338.06C65.5192 338.682 65.4616 339.327 65.2416 339.912C65.0216 340.498 64.6491 340.998 64.1712 341.351C63.6932 341.703 63.1313 341.891 62.5564 341.891C61.7865 341.889 61.0485 341.551 60.5045 340.95C59.9605 340.349 59.6549 339.535 59.6549 338.686H59.65ZM53.6268 325.639C53.6268 326.273 53.4564 326.893 53.137 327.42C52.8177 327.947 52.3637 328.357 51.8327 328.6C51.3016 328.843 50.7172 328.906 50.1534 328.782C49.5896 328.659 49.0718 328.354 48.6653 327.905C48.2588 327.457 47.982 326.886 47.8699 326.264C47.7577 325.643 47.8153 324.998 48.0352 324.413C48.2552 323.827 48.6278 323.326 49.1057 322.974C49.5837 322.622 50.1456 322.434 50.7204 322.434C51.1025 322.433 51.481 322.516 51.8342 322.676C52.1873 322.837 52.5083 323.073 52.7787 323.371C53.0491 323.669 53.2637 324.022 53.41 324.411C53.5564 324.8 53.6317 325.218 53.6317 325.639H53.6268ZM59.6549 312.565C59.6549 311.932 59.8254 311.312 60.1448 310.785C60.4641 310.258 60.918 309.847 61.4491 309.604C61.9802 309.362 62.5646 309.298 63.1284 309.422C63.6921 309.546 64.21 309.851 64.6165 310.299C65.023 310.747 65.2998 311.318 65.4119 311.94C65.524 312.562 65.4665 313.206 65.2465 313.792C65.0265 314.378 64.654 314.878 64.1761 315.23C63.6981 315.582 63.1362 315.77 62.5613 315.77C62.1797 315.77 61.8017 315.688 61.4491 315.526C61.0965 315.365 60.7761 315.129 60.5062 314.832C60.2363 314.534 60.0222 314.181 59.8762 313.792C59.7301 313.403 59.6549 312.986 59.6549 312.565ZM4.88823 218.374C4.57998 203.396 14.0478 188.746 33.0275 174.831H45.8128C39.6868 183.07 28.2422 201.496 28.986 223.144C29.4753 236.967 34.8575 249.674 45.0299 261.005H32.2887C28.4086 258.28 5.37753 241.143 4.88823 218.374ZM31.7162 266.395H93.2695C93.8641 266.473 94.4121 266.789 94.8097 267.282C95.2073 267.776 95.427 268.414 95.427 269.074C95.427 269.734 95.2073 270.372 94.8097 270.865C94.4121 271.359 93.8641 271.675 93.2695 271.753H31.7211C31.1265 271.675 30.5785 271.359 30.1809 270.865C29.7832 270.372 29.5636 269.734 29.5636 269.074C29.5636 268.414 29.7832 267.776 30.1809 267.282C30.5785 266.789 31.1265 266.473 31.7211 266.395H31.7162ZM120.088 218.374C119.598 241.181 96.5771 258.269 92.6872 260.999H79.9655C90.1429 249.669 95.5349 236.962 96.0095 223.138C96.7532 201.491 85.3086 183.076 79.1827 174.82H91.963C110.943 188.752 120.411 203.401 120.093 218.39L120.088 218.374ZM92.6872 169.414H32.2887C31.1208 169.414 30.0007 168.902 29.1749 167.992C28.349 167.081 27.8851 165.846 27.8851 164.558C27.8851 163.27 28.349 162.035 29.1749 161.124C30.0007 160.213 31.1208 159.702 32.2887 159.702H92.6921C93.86 159.702 94.9801 160.213 95.8059 161.124C96.6318 162.035 97.0957 163.27 97.0957 164.558C97.0957 165.846 96.6318 167.081 95.8059 167.992C94.9801 168.902 93.86 169.414 92.6921 169.414H92.6872ZM33.8789 222.998C33.052 199.327 48.8171 179.04 52.3057 174.853H60.0513V261.005H52.1736C40.5186 249.706 34.3633 236.919 33.8789 222.998ZM72.8218 261.026H64.9442V174.826H72.6897C76.1784 179.013 91.9435 199.3 91.1166 222.971C90.6273 236.919 84.4719 249.706 72.8218 261.005V261.026ZM66.143 154.344H58.8476V150.319C58.8822 149.277 59.2816 148.291 59.9619 147.568C60.6422 146.845 61.5503 146.441 62.4953 146.441C63.4402 146.441 64.3484 146.845 65.0286 147.568C65.7089 148.291 66.1084 149.277 66.143 150.319V154.344Z" fill="#FFB649" stroke="#EB8C1D" stroke-width="0.6" mask="url(#path-9-inside-1)"/>
</g>
<defs>
<linearGradient id="paint0_linear" x1="66.5101" y1="374.335" x2="58.4857" y2="374.335" gradientUnits="userSpaceOnUse">
<stop stop-color="#E0C24D"/>
<stop offset="0.32" stop-color="#FDF98F"/>
<stop offset="0.68" stop-color="#CEA930"/>
<stop offset="1" stop-color="#FFFF99"/>
</linearGradient>
<clipPath id="clip0">
<rect width="125" height="385" fill="white" transform="translate(0 -2)"/>
</clipPath>
</defs>
</svg>
