<svg width="125" height="385" viewBox="0 0 125 385" fill="none" xmlns="http://www.w3.org/2000/svg">
<g clip-path="url(#clip0)">
<path d="M32.2935 174.128H92.6969C159.461 222.516 93.4063 265.697 93.4063 265.697H31.5938C31.5938 265.697 -34.4609 222.516 32.2935 174.128Z" fill="#F13015"/>
<path d="M31.726 276.451H93.2743C95.9658 276.451 98.1477 274.045 98.1477 271.077V271.071C98.1477 268.103 95.9658 265.697 93.2743 265.697H31.726C29.0345 265.697 26.8527 268.103 26.8527 271.071V271.077C26.8527 274.045 29.0345 276.451 31.726 276.451Z" fill="#F13015"/>
<path d="M32.3033 174.128H92.6969C96.4747 174.128 99.5372 170.751 99.5372 166.585C99.5372 162.419 96.4747 159.042 92.6969 159.042H32.3033C28.5255 159.042 25.463 162.419 25.463 166.585C25.463 170.751 28.5255 174.128 32.3033 174.128Z" fill="#F13015"/>
<path d="M62.5665 320.495C65.5228 320.495 67.9194 317.852 67.9194 314.592C67.9194 311.332 65.5228 308.69 62.5665 308.69C59.6102 308.69 57.2136 311.332 57.2136 314.592C57.2136 317.852 59.6102 320.495 62.5665 320.495Z" fill="#F13015"/>
<path d="M62.5665 346.588C65.5228 346.588 67.9194 343.946 67.9194 340.686C67.9194 337.426 65.5228 334.783 62.5665 334.783C59.6102 334.783 57.2136 337.426 57.2136 340.686C57.2136 343.946 59.6102 346.588 62.5665 346.588Z" fill="#F13015"/>
<path d="M50.7347 333.542C53.691 333.542 56.0876 330.899 56.0876 327.639C56.0876 324.379 53.691 321.736 50.7347 321.736C47.7784 321.736 45.3818 324.379 45.3818 327.639C45.3818 330.899 47.7784 333.542 50.7347 333.542Z" fill="#F13015"/>
<path d="M74.3976 333.542C77.3539 333.542 79.7504 330.899 79.7504 327.639C79.7504 324.379 77.3539 321.736 74.3976 321.736C71.4412 321.736 69.0447 324.379 69.0447 327.639C69.0447 330.899 71.4412 333.542 74.3976 333.542Z" fill="#F13015"/>
<path d="M62.2533 382.653V382.362C62.0539 382.624 61.8046 382.835 61.523 382.98C61.2414 383.124 60.9345 383.199 60.6239 383.198C60.0568 383.198 59.513 382.949 59.112 382.507C58.711 382.065 58.4857 381.465 58.4857 380.84V372.094C58.4857 370.92 58.9084 369.795 59.6609 368.965C60.4133 368.135 61.4338 367.669 62.4979 367.669C63.562 367.669 64.5826 368.135 65.335 368.965C66.0874 369.795 66.5101 370.92 66.5101 372.094V382.648C66.5101 383.27 66.2859 383.867 65.8867 384.307C65.4876 384.747 64.9462 384.995 64.3817 384.995C63.8172 384.995 63.2758 384.747 62.8767 384.307C62.4775 383.867 62.2533 383.27 62.2533 382.648V382.653ZM58.975 372.099V380.845C58.9793 381.308 59.1435 381.75 59.434 382.084C59.7246 382.417 60.1195 382.615 60.5381 382.638C60.9567 382.66 61.3674 382.506 61.6862 382.206C62.005 381.906 62.2078 381.483 62.2533 381.023H62.7426V382.642C62.7426 383.122 62.9153 383.581 63.2227 383.92C63.5301 384.259 63.947 384.45 64.3817 384.45C64.8164 384.45 65.2334 384.259 65.5408 383.92C65.8482 383.581 66.0208 383.122 66.0208 382.642V372.094C66.0208 371.063 65.6497 370.075 64.989 369.347C64.3283 368.618 63.4323 368.209 62.4979 368.209C61.5636 368.209 60.6675 368.618 60.0069 369.347C59.3462 370.075 58.975 371.063 58.975 372.094V372.099Z" fill="url(#paint0_linear)"/>
<mask id="path-9-inside-1" fill="white">
<path d="M-0.00471108 220.514C0.460118 242.55 18.5885 259.055 26.5982 265.298C25.5674 266.423 24.862 267.86 24.5712 269.427C24.2803 270.994 24.4171 272.621 24.9642 274.102C25.5113 275.584 26.4441 276.853 27.645 277.75C28.8459 278.648 30.2609 279.132 31.7113 279.143H60.0366V306.472C58.4906 307.051 57.1489 308.152 56.2009 309.618C55.2529 311.084 54.7467 312.841 54.7537 314.642C54.7607 316.442 55.2807 318.195 56.2401 319.652C57.1995 321.109 58.5498 322.197 60.1002 322.761V324.952H58.1137C57.5322 323.011 56.3428 321.362 54.7586 320.3C53.1745 319.238 51.2992 318.834 49.469 319.158C47.6387 319.483 45.9733 320.516 44.7711 322.072C43.5689 323.628 42.9086 325.606 42.9086 327.65C42.9086 329.694 43.5689 331.671 44.7711 333.227C45.9733 334.784 47.6387 335.817 49.469 336.141C51.2992 336.466 53.1745 336.061 54.7586 335C56.3428 333.938 57.5322 332.289 58.1137 330.348H60.1002V332.538C58.5432 333.104 57.1877 334.197 56.2269 335.662C55.2661 337.127 54.7489 338.889 54.7489 340.696C54.7489 342.504 55.2661 344.266 56.2269 345.731C57.1877 347.196 58.5432 348.289 60.1002 348.855L60.0464 367.443C60.0482 367.876 60.1456 368.301 60.3302 368.684C59.8345 369.066 59.4299 369.575 59.1505 370.167C58.8711 370.758 58.7253 371.416 58.7253 372.083V380.829C58.7268 381.363 58.9139 381.875 59.248 382.261C59.5821 382.647 60.0377 382.876 60.5209 382.903C61.004 382.929 61.4779 382.75 61.8448 382.402C62.2117 382.055 62.4437 381.565 62.4928 381.034V382.653C62.4928 383.204 62.6913 383.732 63.0446 384.122C63.3979 384.511 63.877 384.73 64.3766 384.73C64.8762 384.73 65.3554 384.511 65.7087 384.122C66.0619 383.732 66.2604 383.204 66.2604 382.653V372.094C66.2604 371.427 66.1146 370.769 65.8352 370.177C65.5558 369.586 65.1511 369.077 64.6555 368.694C64.8378 368.317 64.9351 367.897 64.9393 367.47L64.998 348.844C66.5568 348.279 67.9142 347.186 68.8764 345.721C69.8387 344.255 70.3568 342.492 70.3568 340.683C70.3568 338.874 69.8387 337.111 68.8764 335.645C67.9142 334.18 66.5568 333.087 64.998 332.522V330.331H66.9846C67.566 332.272 68.7555 333.922 70.3396 334.983C71.9238 336.045 73.799 336.45 75.6292 336.125C77.4595 335.8 79.125 334.767 80.3272 333.211C81.5293 331.655 82.1896 329.678 82.1896 327.634C82.1896 325.589 81.5293 323.612 80.3272 322.056C79.125 320.5 77.4595 319.467 75.6292 319.142C73.799 318.818 71.9238 319.222 70.3396 320.284C68.7555 321.346 67.566 322.995 66.9846 324.936H64.998V322.745C66.5594 322.176 67.9174 321.076 68.8777 319.604C69.8379 318.131 70.3513 316.362 70.3442 314.548C70.3371 312.734 69.8101 310.97 68.8384 309.507C67.8667 308.043 66.5002 306.957 64.9344 306.402V279.154H93.2597C94.7101 279.143 96.1251 278.658 97.326 277.761C98.5269 276.864 99.4597 275.595 100.007 274.113C100.554 272.632 100.691 271.005 100.4 269.438C100.109 267.871 99.4036 266.434 98.3728 265.309C106.407 259.055 124.516 242.55 124.976 220.525C125.313 204.538 116.256 189.23 98.0645 174.932C99.6594 173.668 100.85 171.88 101.467 169.824C102.083 167.768 102.093 165.549 101.496 163.486C100.898 161.423 99.7232 159.622 98.14 158.341C96.5567 157.06 94.6461 156.365 92.6823 156.355H71.0359V152.319C71.0334 150.292 70.4391 148.321 69.3411 146.696C68.243 145.071 66.6995 143.879 64.9393 143.297V0H60.0464V143.303C58.2861 143.885 56.7427 145.076 55.6446 146.701C54.5465 148.326 53.9522 150.298 53.9498 152.324V156.349H32.2887C30.3249 156.359 28.4143 157.055 26.8311 158.336C25.2478 159.617 24.0731 161.418 23.4754 163.481C22.8777 165.544 22.8878 167.762 23.5042 169.819C24.1206 171.875 25.3116 173.663 26.9065 174.926C8.71941 189.203 -0.332538 204.527 -0.00471108 220.514ZM71.4812 327.639C71.4812 327.005 71.6516 326.386 71.971 325.858C72.2904 325.331 72.7443 324.921 73.2754 324.678C73.8064 324.435 74.3908 324.372 74.9546 324.496C75.5184 324.619 76.0363 324.925 76.4427 325.373C76.8492 325.821 77.126 326.392 77.2382 327.014C77.3503 327.635 77.2927 328.28 77.0728 328.866C76.8528 329.451 76.4803 329.952 76.0023 330.304C75.5243 330.656 74.9624 330.844 74.3876 330.844C73.6176 330.843 72.8796 330.504 72.3356 329.903C71.7916 329.303 71.4861 328.488 71.4861 327.639H71.4812ZM59.65 340.686C59.65 340.052 59.8205 339.432 60.1399 338.905C60.4592 338.378 60.9131 337.967 61.4442 337.725C61.9753 337.482 62.5597 337.419 63.1235 337.542C63.6873 337.666 64.2051 337.971 64.6116 338.419C65.0181 338.868 65.2949 339.439 65.407 340.06C65.5192 340.682 65.4616 341.327 65.2416 341.912C65.0216 342.498 64.6491 342.998 64.1712 343.351C63.6932 343.703 63.1313 343.891 62.5564 343.891C61.7865 343.889 61.0485 343.551 60.5045 342.95C59.9605 342.349 59.6549 341.535 59.6549 340.686H59.65ZM53.6268 327.639C53.6268 328.273 53.4564 328.893 53.137 329.42C52.8177 329.947 52.3637 330.357 51.8327 330.6C51.3016 330.843 50.7172 330.906 50.1534 330.782C49.5896 330.659 49.0718 330.354 48.6653 329.905C48.2588 329.457 47.982 328.886 47.8699 328.264C47.7577 327.643 47.8153 326.998 48.0352 326.413C48.2552 325.827 48.6278 325.326 49.1057 324.974C49.5837 324.622 50.1456 324.434 50.7204 324.434C51.1025 324.433 51.481 324.516 51.8342 324.676C52.1873 324.837 52.5083 325.073 52.7787 325.371C53.0491 325.669 53.2637 326.022 53.41 326.411C53.5564 326.8 53.6317 327.218 53.6317 327.639H53.6268ZM59.6549 314.565C59.6549 313.932 59.8254 313.312 60.1448 312.785C60.4641 312.258 60.918 311.847 61.4491 311.604C61.9802 311.362 62.5646 311.298 63.1284 311.422C63.6921 311.546 64.21 311.851 64.6165 312.299C65.023 312.747 65.2998 313.318 65.4119 313.94C65.524 314.562 65.4665 315.206 65.2465 315.792C65.0265 316.378 64.654 316.878 64.1761 317.23C63.6981 317.582 63.1362 317.77 62.5613 317.77C62.1797 317.77 61.8017 317.688 61.4491 317.526C61.0965 317.365 60.7761 317.129 60.5062 316.832C60.2363 316.534 60.0222 316.181 59.8762 315.792C59.7301 315.403 59.6549 314.986 59.6549 314.565ZM4.88823 220.374C4.57998 205.396 14.0478 190.746 33.0275 176.831H45.8128C39.6868 185.07 28.2422 203.496 28.986 225.144C29.4753 238.967 34.8575 251.674 45.0299 263.005H32.2887C28.4086 260.28 5.37753 243.143 4.88823 220.374ZM31.7162 268.395H62.4928H93.2695C93.8641 268.473 94.4121 268.789 94.8097 269.282C95.2074 269.776 95.427 270.414 95.427 271.074C95.427 271.734 95.2074 272.372 94.8097 272.865C94.4121 273.359 93.8641 273.675 93.2695 273.753H31.7211C31.1265 273.675 30.5785 273.359 30.1809 272.865C29.7832 272.372 29.5636 271.734 29.5636 271.074C29.5636 270.414 29.7832 269.776 30.1809 269.282C30.5785 268.789 31.1265 268.473 31.7211 268.395H31.7162ZM120.088 220.374C119.598 243.181 96.5771 260.269 92.6872 262.999H79.9655C90.1429 251.669 95.5349 238.962 96.0095 225.138C96.7532 203.491 85.3086 185.076 79.1827 176.82H91.963C110.943 190.752 120.411 205.401 120.093 220.39L120.088 220.374ZM92.6872 171.414H32.2887C31.1208 171.414 30.0007 170.902 29.1749 169.992C28.349 169.081 27.8851 167.846 27.8851 166.558C27.8851 165.27 28.349 164.035 29.1749 163.124C30.0007 162.213 31.1208 161.702 32.2887 161.702H92.6921C93.86 161.702 94.9801 162.213 95.8059 163.124C96.6318 164.035 97.0957 165.27 97.0957 166.558C97.0957 167.846 96.6318 169.081 95.8059 169.992C94.9801 170.902 93.86 171.414 92.6921 171.414H92.6872ZM33.8789 224.998C33.052 201.327 48.8171 181.04 52.3057 176.853H60.0513V263.005H52.1736C40.5186 251.706 34.3633 238.919 33.8789 224.998ZM72.8218 263.026H64.9442V176.826H72.6897C76.1784 181.013 91.9435 201.3 91.1166 224.971C90.6273 238.919 84.4719 251.706 72.8218 263.005V263.026ZM66.143 156.344H58.8476V152.319C58.8822 151.277 59.2816 150.291 59.9619 149.568C60.6422 148.845 61.5503 148.441 62.4953 148.441C63.4402 148.441 64.3484 148.845 65.0286 149.568C65.7089 150.291 66.1084 151.277 66.143 152.319V156.344Z"/>
</mask>
<path d="M-0.00471108 220.514C0.460118 242.55 18.5885 259.055 26.5982 265.298C25.5674 266.423 24.862 267.86 24.5712 269.427C24.2803 270.994 24.4171 272.621 24.9642 274.102C25.5113 275.584 26.4441 276.853 27.645 277.75C28.8459 278.648 30.2609 279.132 31.7113 279.143H60.0366V306.472C58.4906 307.051 57.1489 308.152 56.2009 309.618C55.2529 311.084 54.7467 312.841 54.7537 314.642C54.7607 316.442 55.2807 318.195 56.2401 319.652C57.1995 321.109 58.5498 322.197 60.1002 322.761V324.952H58.1137C57.5322 323.011 56.3428 321.362 54.7586 320.3C53.1745 319.238 51.2992 318.834 49.469 319.158C47.6387 319.483 45.9733 320.516 44.7711 322.072C43.5689 323.628 42.9086 325.606 42.9086 327.65C42.9086 329.694 43.5689 331.671 44.7711 333.227C45.9733 334.784 47.6387 335.817 49.469 336.141C51.2992 336.466 53.1745 336.061 54.7586 335C56.3428 333.938 57.5322 332.289 58.1137 330.348H60.1002V332.538C58.5432 333.104 57.1877 334.197 56.2269 335.662C55.2661 337.127 54.7489 338.889 54.7489 340.696C54.7489 342.504 55.2661 344.266 56.2269 345.731C57.1877 347.196 58.5432 348.289 60.1002 348.855L60.0464 367.443C60.0482 367.876 60.1456 368.301 60.3302 368.684C59.8345 369.066 59.4299 369.575 59.1505 370.167C58.8711 370.758 58.7253 371.416 58.7253 372.083V380.829C58.7268 381.363 58.9139 381.875 59.248 382.261C59.5821 382.647 60.0377 382.876 60.5209 382.903C61.004 382.929 61.4779 382.75 61.8448 382.402C62.2117 382.055 62.4437 381.565 62.4928 381.034V382.653C62.4928 383.204 62.6913 383.732 63.0446 384.122C63.3979 384.511 63.877 384.73 64.3766 384.73C64.8762 384.73 65.3554 384.511 65.7087 384.122C66.0619 383.732 66.2604 383.204 66.2604 382.653V372.094C66.2604 371.427 66.1146 370.769 65.8352 370.177C65.5558 369.586 65.1511 369.077 64.6555 368.694C64.8378 368.317 64.9351 367.897 64.9393 367.47L64.998 348.844C66.5568 348.279 67.9142 347.186 68.8764 345.721C69.8387 344.255 70.3568 342.492 70.3568 340.683C70.3568 338.874 69.8387 337.111 68.8764 335.645C67.9142 334.18 66.5568 333.087 64.998 332.522V330.331H66.9846C67.566 332.272 68.7555 333.922 70.3396 334.983C71.9238 336.045 73.799 336.45 75.6292 336.125C77.4595 335.8 79.125 334.767 80.3272 333.211C81.5293 331.655 82.1896 329.678 82.1896 327.634C82.1896 325.589 81.5293 323.612 80.3272 322.056C79.125 320.5 77.4595 319.467 75.6292 319.142C73.799 318.818 71.9238 319.222 70.3396 320.284C68.7555 321.346 67.566 322.995 66.9846 324.936H64.998V322.745C66.5594 322.176 67.9174 321.076 68.8777 319.604C69.8379 318.131 70.3513 316.362 70.3442 314.548C70.3371 312.734 69.8101 310.97 68.8384 309.507C67.8667 308.043 66.5002 306.957 64.9344 306.402V279.154H93.2597C94.7101 279.143 96.1251 278.658 97.326 277.761C98.5269 276.864 99.4597 275.595 100.007 274.113C100.554 272.632 100.691 271.005 100.4 269.438C100.109 267.871 99.4036 266.434 98.3728 265.309C106.407 259.055 124.516 242.55 124.976 220.525C125.313 204.538 116.256 189.23 98.0645 174.932C99.6594 173.668 100.85 171.88 101.467 169.824C102.083 167.768 102.093 165.549 101.496 163.486C100.898 161.423 99.7232 159.622 98.14 158.341C96.5567 157.06 94.6461 156.365 92.6823 156.355H71.0359V152.319C71.0334 150.292 70.4391 148.321 69.3411 146.696C68.243 145.071 66.6995 143.879 64.9393 143.297V0H60.0464V143.303C58.2861 143.885 56.7427 145.076 55.6446 146.701C54.5465 148.326 53.9522 150.298 53.9498 152.324V156.349H32.2887C30.3249 156.359 28.4143 157.055 26.8311 158.336C25.2478 159.617 24.0731 161.418 23.4754 163.481C22.8777 165.544 22.8878 167.762 23.5042 169.819C24.1206 171.875 25.3116 173.663 26.9065 174.926C8.71941 189.203 -0.332538 204.527 -0.00471108 220.514ZM71.4812 327.639C71.4812 327.005 71.6516 326.386 71.971 325.858C72.2904 325.331 72.7443 324.921 73.2754 324.678C73.8064 324.435 74.3908 324.372 74.9546 324.496C75.5184 324.619 76.0363 324.925 76.4427 325.373C76.8492 325.821 77.126 326.392 77.2382 327.014C77.3503 327.635 77.2927 328.28 77.0728 328.866C76.8528 329.451 76.4803 329.952 76.0023 330.304C75.5243 330.656 74.9624 330.844 74.3876 330.844C73.6176 330.843 72.8796 330.504 72.3356 329.903C71.7916 329.303 71.4861 328.488 71.4861 327.639H71.4812ZM59.65 340.686C59.65 340.052 59.8205 339.432 60.1399 338.905C60.4592 338.378 60.9131 337.967 61.4442 337.725C61.9753 337.482 62.5597 337.419 63.1235 337.542C63.6873 337.666 64.2051 337.971 64.6116 338.419C65.0181 338.868 65.2949 339.439 65.407 340.06C65.5192 340.682 65.4616 341.327 65.2416 341.912C65.0216 342.498 64.6491 342.998 64.1712 343.351C63.6932 343.703 63.1313 343.891 62.5564 343.891C61.7865 343.889 61.0485 343.551 60.5045 342.95C59.9605 342.349 59.6549 341.535 59.6549 340.686H59.65ZM53.6268 327.639C53.6268 328.273 53.4564 328.893 53.137 329.42C52.8177 329.947 52.3637 330.357 51.8327 330.6C51.3016 330.843 50.7172 330.906 50.1534 330.782C49.5896 330.659 49.0718 330.354 48.6653 329.905C48.2588 329.457 47.982 328.886 47.8699 328.264C47.7577 327.643 47.8153 326.998 48.0352 326.413C48.2552 325.827 48.6278 325.326 49.1057 324.974C49.5837 324.622 50.1456 324.434 50.7204 324.434C51.1025 324.433 51.481 324.516 51.8342 324.676C52.1873 324.837 52.5083 325.073 52.7787 325.371C53.0491 325.669 53.2637 326.022 53.41 326.411C53.5564 326.8 53.6317 327.218 53.6317 327.639H53.6268ZM59.6549 314.565C59.6549 313.932 59.8254 313.312 60.1448 312.785C60.4641 312.258 60.918 311.847 61.4491 311.604C61.9802 311.362 62.5646 311.298 63.1284 311.422C63.6921 311.546 64.21 311.851 64.6165 312.299C65.023 312.747 65.2998 313.318 65.4119 313.94C65.524 314.562 65.4665 315.206 65.2465 315.792C65.0265 316.378 64.654 316.878 64.1761 317.23C63.6981 317.582 63.1362 317.77 62.5613 317.77C62.1797 317.77 61.8017 317.688 61.4491 317.526C61.0965 317.365 60.7761 317.129 60.5062 316.832C60.2363 316.534 60.0222 316.181 59.8762 315.792C59.7301 315.403 59.6549 314.986 59.6549 314.565ZM4.88823 220.374C4.57998 205.396 14.0478 190.746 33.0275 176.831H45.8128C39.6868 185.07 28.2422 203.496 28.986 225.144C29.4753 238.967 34.8575 251.674 45.0299 263.005H32.2887C28.4086 260.28 5.37753 243.143 4.88823 220.374ZM31.7162 268.395H62.4928H93.2695C93.8641 268.473 94.4121 268.789 94.8097 269.282C95.2074 269.776 95.427 270.414 95.427 271.074C95.427 271.734 95.2074 272.372 94.8097 272.865C94.4121 273.359 93.8641 273.675 93.2695 273.753H31.7211C31.1265 273.675 30.5785 273.359 30.1809 272.865C29.7832 272.372 29.5636 271.734 29.5636 271.074C29.5636 270.414 29.7832 269.776 30.1809 269.282C30.5785 268.789 31.1265 268.473 31.7211 268.395H31.7162ZM120.088 220.374C119.598 243.181 96.5771 260.269 92.6872 262.999H79.9655C90.1429 251.669 95.5349 238.962 96.0095 225.138C96.7532 203.491 85.3086 185.076 79.1827 176.82H91.963C110.943 190.752 120.411 205.401 120.093 220.39L120.088 220.374ZM92.6872 171.414H32.2887C31.1208 171.414 30.0007 170.902 29.1749 169.992C28.349 169.081 27.8851 167.846 27.8851 166.558C27.8851 165.27 28.349 164.035 29.1749 163.124C30.0007 162.213 31.1208 161.702 32.2887 161.702H92.6921C93.86 161.702 94.9801 162.213 95.8059 163.124C96.6318 164.035 97.0957 165.27 97.0957 166.558C97.0957 167.846 96.6318 169.081 95.8059 169.992C94.9801 170.902 93.86 171.414 92.6921 171.414H92.6872ZM33.8789 224.998C33.052 201.327 48.8171 181.04 52.3057 176.853H60.0513V263.005H52.1736C40.5186 251.706 34.3633 238.919 33.8789 224.998ZM72.8218 263.026H64.9442V176.826H72.6897C76.1784 181.013 91.9435 201.3 91.1166 224.971C90.6273 238.919 84.4719 251.706 72.8218 263.005V263.026ZM66.143 156.344H58.8476V152.319C58.8822 151.277 59.2816 150.291 59.9619 149.568C60.6422 148.845 61.5503 148.441 62.4953 148.441C63.4402 148.441 64.3484 148.845 65.0286 149.568C65.7089 150.291 66.1084 151.277 66.143 152.319V156.344Z" fill="#FFB649" stroke="#EB8C1D" stroke-width="0.6" mask="url(#path-9-inside-1)"/>
</g>
<defs>
<linearGradient id="paint0_linear" x1="66.5101" y1="376.335" x2="58.4857" y2="376.335" gradientUnits="userSpaceOnUse">
<stop stop-color="#E0C24D"/>
<stop offset="0.32" stop-color="#FDF98F"/>
<stop offset="0.68" stop-color="#CEA930"/>
<stop offset="1" stop-color="#FFFF99"/>
</linearGradient>
<clipPath id="clip0">
<rect width="125" height="385" fill="white"/>
</clipPath>
</defs>
</svg>
